<svg width="50" height="45" viewBox="0 0 67 59" fill="none"
    xmlns="http://www.w3.org/2000/svg">
    <path d="M10.5378 36.481C12.2335 34.3134 13.9293 32.1458 16.1095 30.3395C17.1996 29.3761 18.4109 28.774 19.7432 28.6536C21.9235 28.4127 24.1037 28.0515 26.284 28.0515C31.0078 27.8106 35.6106 27.0881 40.2133 26.3656C42.0302 26.0043 43.8471 25.8839 45.6639 25.643C46.7541 25.5226 47.6019 26.2451 47.7231 27.3289C47.7231 27.9311 47.7231 28.6536 47.4808 29.2557C46.7541 31.4233 45.0583 32.6275 42.9992 33.3501C41.1823 33.9522 39.2443 34.4339 37.3063 35.036C36.8218 35.1564 36.3373 35.3972 35.8528 35.5177C35.974 35.6381 36.0951 35.7585 36.3373 35.7585C38.3965 35.9993 40.4556 36.2402 42.5147 36.3606C45.7851 36.481 48.9343 35.7585 51.8413 34.0726C53.537 33.1092 55.1117 32.2663 56.8074 31.3029C58.5032 30.4599 60.0778 29.617 62.0158 29.4965C63.227 29.3761 64.3172 29.617 65.2862 30.4599C66.0129 31.062 66.4974 32.5071 65.4073 33.3501C64.9228 33.7113 64.5594 34.0726 64.196 34.4339C59.7144 38.167 54.8694 41.2979 49.5399 43.586C47.8442 44.3085 46.1484 45.031 44.2104 45.1514C42.9992 45.2719 41.6668 45.3923 40.4556 45.3923C36.4585 45.5127 32.4613 45.7536 28.5853 45.7536C27.0107 45.7536 25.6784 46.2353 24.346 46.9578C22.408 48.162 20.5911 49.6071 18.8954 51.1726L7.99414 40.3346C8.84201 38.8895 9.68989 37.6853 10.5378 36.481Z" fill="white"/>
    <path d="M0.363374 48.2824L10.7801 58.6387C11.2646 59.1204 12.1125 59.1204 12.597 58.6387L17.5631 53.7014C18.0476 53.2197 18.0476 52.3768 17.5631 51.8951L7.14636 41.5388C6.66186 41.0571 5.81399 41.0571 5.32949 41.5388L0.363374 46.4761C-0.121125 47.0782 -0.121125 47.8007 0.363374 48.2824Z" fill="white"/>
    <path d="M32.9459 4.44866C32.3403 3.24444 31.6136 2.16064 30.5234 1.4381C26.6474 -1.45204 21.318 0.715567 20.5912 5.41204C20.2278 7.57964 20.8335 9.62682 21.8025 11.4332C23.3771 14.3233 25.6784 16.6113 28.1009 18.7789C29.5544 19.9831 31.1291 21.0669 32.5826 22.1507C32.8248 22.3916 33.0671 22.2712 33.3093 22.1507C36.9431 19.7423 40.3345 16.9726 42.8782 13.3599C44.3317 11.3127 45.5429 9.02471 45.4218 6.37542C45.3007 3.12401 43.2415 0.715567 40.2134 0.113455C37.6698 -0.368234 35.6107 0.715567 33.9149 2.76275C33.5516 3.36486 33.3093 3.84655 32.9459 4.44866Z" fill="white"/>
</svg>
