<svg width="24" height="24" viewBox="0 0 33 33" fill="none"
    xmlns="http://www.w3.org/2000/svg">
    <path d="M29.5221 20.4632C34.2132 15.7721 34.2132 8.16912 29.5221 3.47794C24.8309 -1.21324 17.2279 -1.21324 12.5368 3.47794C8.41177 7.60294 7.92647 13.9926 11 18.6029L0 29.6838L3.31618 33L14.3162 22C19.0074 25.1544 25.3971 24.5882 29.5221 20.4632ZM15.2059 17.875C11.9706 14.6397 11.9706 9.38235 15.2059 6.14706C18.4412 2.91176 23.6985 2.91176 26.9338 6.14706C30.1691 9.38235 30.1691 14.6397 26.9338 17.875C23.6985 21.1103 18.4412 21.1103 15.2059 17.875Z" fill="white"/>
</svg>
