<svg width="188" height="45" viewBox="0 0 250 59" fill="none"
    xmlns="http://www.w3.org/2000/svg">
    <g clip-path="url(#clip0)">
        <path d="M85 16.9388H89.9801V25.7066L97.0124 16.9388H102.923L93.893 28.2885L103.799 42.3814H97.9702L89.9801 31.0855V42.3814H85V16.9388Z" fill="white"/>
        <path d="M119.532 16.2934C123.199 16.2934 126.346 17.5844 128.973 20.1932C131.599 22.802 132.913 25.9755 132.913 29.7139C132.913 33.4254 131.599 36.5721 129 39.1271C126.4 41.709 123.254 42.9731 119.532 42.9731C115.647 42.9731 112.418 41.6553 109.846 39.0196C107.274 36.3839 105.988 33.2372 105.988 29.6064C105.988 27.1858 106.59 24.9266 107.794 22.9095C108.998 20.8924 110.639 19.2518 112.719 18.0685C114.853 16.8851 117.097 16.2934 119.532 16.2934ZM119.478 21.0269C117.07 21.0269 115.072 21.8337 113.43 23.4743C111.816 25.1149 110.995 27.2127 110.995 29.7408C110.995 32.5648 112.035 34.7702 114.087 36.4108C115.674 37.7017 117.507 38.3203 119.587 38.3203C121.913 38.3203 123.91 37.4866 125.552 35.8191C127.194 34.1516 128.015 32.1076 128.015 29.687C128.015 27.2665 127.194 25.2225 125.525 23.5281C123.856 21.8606 121.858 21.0269 119.478 21.0269Z" fill="white"/>
        <path d="M135.02 16.9388H149.331V21.6992H144.624V42.3545H139.617V21.6992H135.02V16.9388Z" fill="white"/>
        <path d="M182.96 16.9388H201.567V42.3814H196.587V21.4572H187.94V42.3545H182.96V16.9388Z" fill="white"/>
        <path d="M207.505 16.9389H221.624V21.6724H212.376V26.2714H221.624V30.9242H212.376V37.621H221.624V42.3814H207.505V16.9389ZM210.652 10C211.363 10 211.965 10.2421 212.458 10.7262C212.95 11.2103 213.197 11.802 213.197 12.4743C213.197 13.1736 212.95 13.7653 212.458 14.2494C211.965 14.7335 211.363 14.9756 210.652 14.9756C209.968 14.9756 209.366 14.7335 208.873 14.2494C208.381 13.7653 208.134 13.1736 208.134 12.4743C208.134 11.802 208.381 11.2103 208.873 10.7262C209.366 10.2421 209.968 10 210.652 10ZM218.45 10C219.162 10 219.764 10.2421 220.256 10.7262C220.749 11.2103 220.995 11.802 220.995 12.4743C220.995 13.1736 220.749 13.7653 220.256 14.2494C219.764 14.7335 219.162 14.9756 218.45 14.9756C217.766 14.9756 217.164 14.7335 216.672 14.2494C216.179 13.7653 215.933 13.1736 215.933 12.4743C215.933 11.802 216.179 11.2103 216.672 10.7262C217.164 10.2421 217.766 10 218.45 10Z" fill="white"/>
        <path d="M250 21.4034L246.552 24.6308C244.199 22.1834 241.572 20.9731 238.644 20.9731C236.182 20.9731 234.102 21.8068 232.405 23.4743C230.709 25.1418 229.861 27.1858 229.861 29.6064C229.861 31.3007 230.244 32.8068 230.983 34.1247C231.721 35.4425 232.789 36.4645 234.157 37.2176C235.525 37.9707 237.057 38.3472 238.726 38.3472C240.149 38.3472 241.463 38.0782 242.639 37.5672C243.816 37.0562 245.129 36.088 246.552 34.6895L249.891 38.1051C247.975 39.934 246.169 41.198 244.473 41.9242C242.776 42.6235 240.833 43 238.644 43C234.622 43 231.338 41.7359 228.766 39.2347C226.194 36.7335 224.935 33.5061 224.935 29.6064C224.935 27.0782 225.51 24.8191 226.687 22.8557C227.863 20.8924 229.532 19.3056 231.694 18.0954C233.856 16.8851 236.209 16.2934 238.726 16.2934C240.861 16.2934 242.913 16.7237 244.883 17.6112C246.853 18.4988 248.577 19.7628 250 21.4034Z" fill="white"/>
        <path d="M174.313 20.2469C171.687 17.665 168.567 16.3472 164.928 16.3472C162.52 16.3472 160.276 16.9389 158.197 18.1222C156.117 19.3056 154.475 20.9193 153.299 22.9364C152.095 24.9535 151.52 27.1858 151.52 29.6063C151.52 33.2103 152.806 36.3301 155.351 38.9658C157.896 41.6015 161.124 42.8924 164.983 42.8924C168.677 42.8924 171.796 41.6015 174.396 39.0464C176.968 36.4914 178.281 33.3716 178.281 29.6601C178.254 26.0024 176.94 22.8557 174.313 20.2469ZM170.4 21.9951C171.988 21.4572 173.137 22.2909 173.164 23.9853C173.192 25.7604 171.577 28.0195 169.881 28.5843C168.321 29.0953 167.144 28.2347 167.117 26.5672C167.062 24.7653 168.649 22.5868 170.4 21.9951ZM162.848 20.9193C163.341 20.3814 164.326 19.8704 164.955 20.0049C165.585 20.1393 166.323 20.9731 166.57 21.6455C167.144 23.2592 166.871 24.8997 165.749 26.1907C165.256 26.7824 164.271 27.3472 163.56 27.2934C162.876 27.2396 162.274 26.3521 161.945 26.0831C161.425 23.8777 161.644 22.2371 162.848 20.9193ZM156.308 24.7384C156.582 24.0122 157.376 23.0709 158.005 23.0171C158.716 22.9633 159.565 23.6895 160.276 24.2005C160.604 24.4425 160.687 24.9535 160.905 25.3301C160.988 25.357 161.097 25.3569 161.179 25.3838C161.042 26.621 161.124 27.912 160.714 29.0415C160.112 30.7628 158.333 30.9511 157.184 29.5257C156.007 28.1002 155.679 26.4327 156.308 24.7384ZM168.047 39.2078C167.609 39.5574 166.597 39.2078 165.858 39.1271C165.694 39.1002 165.53 38.9927 165.393 38.8851C163.751 37.3252 161.726 36.9217 159.537 36.868C158.47 36.8411 157.157 36.7873 156.828 35.4425C156.527 34.1516 157.266 33.1296 158.279 32.4303C159.592 31.5428 160.96 30.709 162.41 30.0636C164.736 29.0147 166.46 29.8215 167.363 32.1882C167.582 32.753 167.774 33.3447 167.965 33.9364C167.993 33.9364 168.02 33.9095 168.047 33.9095C168.321 34.9584 168.786 36.0073 168.841 37.0831C168.896 37.7824 168.567 38.8044 168.047 39.2078ZM171.96 33.8557C170.948 34.1516 169.908 34.3398 169.142 33.3985C168.403 32.4841 168.677 31.489 169.197 30.5746C170.017 29.2029 171.194 28.1809 172.836 27.9658C173.547 27.8582 174.587 28.0733 174.97 28.5305C175.381 29.0684 175.463 30.1173 175.244 30.8166C174.724 32.3496 173.493 33.3178 171.96 33.8557Z" fill="white"/>
    </g>
    <g clip-path="url(#clip1)">
        <path d="M43.8451 57.5898C43.9205 54.5356 43.2699 51.4539 42.818 48.4065C42.5852 46.8175 41.6471 46.281 40.0858 47.0789C39.3463 47.4572 38.5177 47.7462 37.6892 47.8837C35.6623 48.2139 34.0805 47.1821 32.5398 44.6782C31.9098 43.6601 32.5877 43.1304 33.6422 42.5182C34.9844 41.734 36.7305 41.0737 37.8124 39.8836C38.5793 39.0375 38.4766 37.366 39.449 36.0727C39.312 34.979 39.1135 33.4588 38.8532 31.4295C40.0927 31.9317 41.2294 33.4175 41.7087 34.3117C42.6947 33.5275 42.3524 31.4295 41.7498 29.8405C43.763 31.3813 45.4406 32.819 46.1322 35.1372C46.2623 35.5843 46.3856 36.0727 46.6595 36.4304C48.6385 39.01 50.8913 41.4107 52.5895 44.1691C52.7539 44.4374 52.9251 44.6919 53.0962 44.9396C53.1236 40.2276 53.151 35.5155 53.1647 30.8035C53.1647 30.3564 52.9319 29.7648 52.6032 29.4759C45.516 23.1749 38.4013 16.9082 31.2593 10.6072C31.0881 10.6828 31.0059 10.7035 30.9511 10.7516C23.9255 16.9908 16.893 23.2299 9.88792 29.5034C9.56608 29.7923 9.37435 30.3908 9.3675 30.8517C9.34696 37.5035 9.34011 44.1623 9.34696 50.8141C9.92216 50.876 10.5042 50.9517 11.0862 51.048C12.4078 51.2613 13.6678 51.9079 15.0373 52.3825C15.5029 49.2801 15.9891 46.5905 16.3726 42.3256C16.8656 42.931 17.2559 44.3962 17.6736 44.9121C17.8517 44.5406 17.9749 43.1236 18.2694 42.5045C18.7556 43.2336 19.1527 43.8183 19.6252 44.5268C22.0287 43.55 23.5146 45.8132 25.4867 46.5699C26.5824 46.9895 26.1646 49.9887 24.98 50.5871C23.5763 51.2957 22.9531 52.4238 22.8162 53.9027C22.6587 55.5949 22.4943 57.294 22.4122 58.9931C23.0285 58.9931 23.6584 58.9931 24.3158 58.9931L38.1137 58.9793C40.0516 58.9793 41.9621 58.9862 43.8657 58.9862C43.8451 58.5391 43.8314 58.0713 43.8451 57.5898Z" fill="white"/>
        <path d="M62.4706 27.5565C59.622 24.9838 56.8487 22.4524 54.0344 19.9622C53.4386 19.4326 53.2126 18.8891 53.2195 18.1049C53.2606 15.1745 53.24 12.251 53.2332 9.32063C53.2332 8.90102 53.1921 8.47453 53.1716 8.0618H45.1941V12.1066L44.2081 11.2261C40.2091 7.66282 36.1895 4.11333 32.2179 0.508804C31.4578 -0.185961 30.9785 -0.165325 30.2184 0.515683C20.5085 9.27936 10.7713 18.0086 1.02714 26.7379C0.73954 26.9993 0.36977 27.1644 0 27.3983C1.23257 28.8222 2.22547 29.9641 3.32793 31.2367C12.6749 22.9614 21.9191 14.7756 31.225 6.52781L59.1153 31.2367C60.2794 29.9641 61.3476 28.7878 62.4706 27.5565Z" fill="white"/>
    </g>
    <defs>
        <clipPath id="clip0">
            <rect width="165" height="33" fill="white" transform="translate(85 10)"/>
        </clipPath>
        <clipPath id="clip1">
            <rect width="62.4706" height="59" fill="white"/>
        </clipPath>
    </defs>
</svg>
