<svg width="272" height="257" viewBox="0 0 272 257" fill="none"
    xmlns="http://www.w3.org/2000/svg">
    <g clip-path="url(#clip0)">
        <path d="M190.904 250.857C191.232 237.553 188.4 224.13 186.432 210.856C185.418 203.934 181.333 201.597 174.536 205.073C171.316 206.721 167.708 207.979 164.101 208.578C155.275 210.017 148.388 205.522 141.68 194.615C138.937 190.181 141.889 187.873 146.48 185.207C152.324 181.791 159.926 178.914 164.637 173.73C167.976 170.045 167.529 162.764 171.763 157.13C171.167 152.366 170.302 145.744 169.169 136.905C174.566 139.092 179.515 145.564 181.602 149.46C185.895 146.044 184.404 136.905 181.781 129.983C190.546 136.695 197.851 142.957 200.862 153.055C201.429 155.003 201.965 157.13 203.158 158.688C211.774 169.925 221.583 180.382 228.977 192.398C229.693 193.566 230.438 194.675 231.184 195.754C231.303 175.229 231.422 154.703 231.482 134.178C231.482 132.23 230.468 129.654 229.037 128.395C198.179 100.948 167.201 73.6511 136.104 46.2042C135.359 46.5338 135.001 46.6237 134.763 46.8334C104.173 74.0106 73.5531 101.188 43.0526 128.515C41.6513 129.773 40.8165 132.38 40.7867 134.388C40.6972 163.363 40.6674 192.368 40.6972 221.343C43.2017 221.613 45.7359 221.942 48.2702 222.362C54.0244 223.291 59.5103 226.107 65.4733 228.175C67.5007 214.661 69.6175 202.945 71.2872 184.368C73.4338 187.004 75.1333 193.387 76.952 195.634C77.7271 194.016 78.2638 187.843 79.5458 185.147C81.6627 188.323 83.392 190.87 85.4492 193.956C95.9142 189.701 102.384 199.559 110.971 202.855C115.741 204.683 113.922 217.747 108.764 220.354C102.652 223.44 99.9392 228.354 99.3429 234.797C98.6571 242.168 97.9416 249.569 97.5838 256.97C100.267 256.97 103.01 256.97 105.872 256.97L165.949 256.91C174.387 256.91 182.705 256.94 190.993 256.94C190.904 254.992 190.844 252.955 190.904 250.857Z" fill="white"/>
        <path d="M272 120.034C259.597 108.828 247.522 97.8011 235.268 86.9541C232.674 84.6469 231.69 82.2798 231.72 78.8639C231.899 66.0993 231.81 53.3646 231.78 40.6C231.78 38.7722 231.601 36.9145 231.512 35.1166H196.777V52.7354L192.484 48.9C175.072 33.3787 157.571 17.9174 140.278 2.2163C136.969 -0.810053 134.882 -0.720162 131.572 2.24626C89.2952 40.4202 46.8986 78.4444 4.47221 116.469C3.21999 117.607 1.61 118.326 0 119.345C5.36666 125.548 9.68979 130.522 14.49 136.065C55.1871 100.018 95.437 64.3614 135.955 28.4347L257.391 136.065C262.459 130.522 267.11 125.398 272 120.034Z" fill="white"/>
    </g>
    <defs>
        <clipPath id="clip0">
            <rect width="272" height="257" fill="white"/>
        </clipPath>
    </defs>
</svg>
